<?xml version="1.0" standalone="no"?>
<!DOCTYPE svg PUBLIC "-//W3C//DTD SVG 20010904//EN"
 "http://www.w3.org/TR/2001/REC-SVG-20010904/DTD/svg10.dtd">
<svg version="1.0" xmlns="http://www.w3.org/2000/svg"
 width="500.000000pt" height="300.000000pt" viewBox="0 0 500.000000 300.000000"
 preserveAspectRatio="xMidYMid meet">

<g transform="translate(0.000000,300.000000) scale(0.100000,-0.100000)"
fill="#000000" stroke="none">
<path d="M2041 2882 c-58 -1 -110 -6 -115 -11 -6 -5 -27 -9 -46 -9 -48 -2
-187 -32 -235 -52 -63 -26 -242 -115 -253 -127 -7 -7 -19 -13 -27 -13 -7 0
-15 -3 -17 -8 -1 -4 -16 -18 -33 -30 -50 -38 -175 -165 -175 -178 0 -7 -3 -14
-7 -16 -11 -5 -53 -66 -53 -77 0 -5 -3 -11 -7 -13 -12 -5 -53 -93 -53 -111 0
-9 -4 -19 -10 -22 -5 -3 -10 -18 -10 -33 0 -15 -7 -40 -16 -57 -13 -24 -17
-62 -17 -187 -1 -95 3 -162 10 -170 6 -7 13 -32 17 -54 3 -23 13 -54 21 -70 8
-16 15 -37 15 -46 0 -10 5 -18 10 -18 6 0 10 -7 10 -15 0 -36 122 -236 197
-324 44 -51 201 -211 208 -211 2 0 17 -12 32 -26 15 -15 48 -43 73 -63 25 -20
49 -42 53 -48 4 -7 15 -13 22 -13 8 0 15 -3 15 -7 0 -5 17 -19 38 -33 36 -25
51 -35 75 -55 24 -20 193 -132 257 -170 36 -21 67 -41 70 -44 7 -8 34 -24 95
-57 28 -15 52 -29 55 -33 6 -7 66 -40 180 -98 41 -21 77 -40 80 -44 4 -4 83
-43 394 -195 55 -26 68 -26 37 3 -26 25 -71 108 -71 134 0 13 -7 19 -22 19
-13 0 -56 17 -97 38 -83 41 -85 44 -86 156 0 39 4 61 13 64 8 2 12 -6 10 -25
-1 -15 -1 -55 0 -88 l2 -60 63 -30 c34 -16 65 -31 70 -33 4 -2 7 27 7 65 0 90
6 106 41 122 67 30 207 -42 252 -128 14 -27 28 -64 32 -82 4 -19 11 -38 15
-44 4 -5 10 -26 14 -46 7 -38 23 -49 89 -65 22 -5 27 -3 27 13 0 10 -5 24 -12
31 -18 18 9 42 51 43 23 1 28 3 14 6 -13 2 -23 7 -24 11 0 4 -2 22 -4 40 -2
28 0 32 14 26 9 -4 26 -8 39 -8 19 -1 22 -7 22 -38 0 -35 2 -38 28 -38 15 0
52 17 82 38 31 20 77 50 103 66 26 17 47 34 47 38 0 4 5 8 10 8 12 0 73 41 78
53 2 4 10 7 18 7 8 0 14 4 14 10 0 5 11 12 24 16 14 3 27 12 30 20 3 8 12 14
19 14 8 0 21 8 28 17 12 15 12 16 -3 10 -15 -5 -18 -1 -18 23 0 17 7 33 17 39
10 5 15 12 11 16 -3 3 -45 -19 -91 -49 -47 -31 -90 -56 -96 -56 -5 0 -11 -3
-13 -7 -5 -12 -66 -53 -78 -53 -5 0 -10 -4 -10 -10 0 -5 -5 -10 -10 -10 -11 0
-70 -39 -80 -52 -3 -3 -18 -10 -33 -13 -15 -4 -27 -11 -27 -16 0 -12 -137 -12
-144 0 -3 5 -25 12 -48 16 -62 10 -99 35 -136 92 -31 47 -48 59 -127 89 -11 4
-23 8 -27 8 -3 1 -10 4 -14 8 -10 10 -64 10 -64 0 0 -14 -41 -33 -59 -27 -12
4 -21 19 -25 45 -6 39 -29 55 -39 27 -2 -6 -7 -9 -11 -6 -8 7 -25 636 -18 656
2 7 19 15 38 19 19 3 34 10 34 14 0 5 18 11 40 15 22 4 42 11 46 16 3 5 13 9
22 9 9 0 29 6 44 14 15 8 42 17 60 21 18 4 38 11 43 15 6 4 39 17 75 29 69 23
99 35 142 57 25 13 27 13 30 -8 5 -38 26 -32 26 8 0 20 5 40 11 43 6 4 14 39
17 79 4 40 11 75 15 78 12 7 12 221 0 228 -4 3 -11 33 -15 67 -3 34 -10 67
-15 73 -5 6 -12 27 -16 46 -4 19 -11 41 -15 50 -5 8 -26 51 -47 95 -21 44 -41
82 -45 83 -5 2 -8 10 -8 17 0 8 -6 20 -12 27 -7 7 -38 45 -70 84 -31 39 -80
91 -109 115 -29 24 -61 52 -71 62 -10 9 -22 17 -27 17 -5 0 -11 4 -13 8 -5 13
-111 82 -125 82 -7 0 -13 4 -13 9 0 5 -13 12 -30 16 -16 4 -30 11 -30 16 0 5
-6 9 -12 9 -7 0 -25 6 -39 14 -15 7 -60 23 -100 35 -41 12 -82 26 -91 31 -10
6 -43 13 -75 16 -32 4 -60 10 -63 14 -6 10 -157 16 -289 12z m257 -28 c23 -7
31 -24 10 -24 -19 0 -78 -58 -78 -76 0 -9 15 1 38 24 43 45 94 72 113 62 8 -4
34 -11 58 -15 47 -8 131 -48 155 -74 13 -15 -3 -16 -207 -17 -125 -1 -239 -6
-262 -12 -22 -6 -65 -16 -95 -22 -105 -20 -143 -30 -154 -39 -6 -4 -23 -11
-39 -15 -23 -6 -29 -3 -38 21 -19 51 -1 93 61 136 15 10 29 13 39 8 9 -5 39
-12 66 -16 28 -4 55 -11 60 -15 6 -4 29 -11 53 -15 23 -4 42 -11 42 -16 0 -5
12 -9 26 -9 34 0 22 17 -19 25 -17 4 -36 11 -42 15 -5 4 -30 11 -55 15 -25 4
-49 11 -55 15 -5 5 -36 11 -67 15 -48 6 -58 5 -58 -8 0 -8 -9 -17 -20 -20 -29
-7 -64 -90 -50 -116 13 -25 13 -61 -1 -61 -12 0 -102 -40 -109 -49 -3 -4 -16
-11 -30 -18 -27 -11 -149 -102 -182 -135 -11 -11 -17 -22 -14 -25 6 -6 86 58
86 70 0 4 6 7 14 7 8 0 16 4 18 8 5 14 90 67 169 106 l76 38 38 -36 c20 -20
43 -36 51 -36 8 0 14 -4 14 -10 0 -5 9 -10 21 -10 16 0 19 -4 14 -20 -6 -20
10 -30 17 -10 5 16 122 -24 126 -43 2 -9 -1 -18 -7 -18 -6 -1 -15 -3 -21 -4
-5 -1 -14 -3 -19 -4 -5 0 -23 -13 -40 -28 -30 -27 -41 -53 -21 -53 17 0 25 5
22 14 -2 5 5 17 14 27 18 20 64 26 64 9 0 -5 -4 -10 -10 -10 -5 0 -10 -14 -10
-31 0 -42 17 -27 25 23 4 23 13 51 19 63 6 11 11 21 12 22 1 4 164 -26 174
-32 6 -3 10 1 10 10 0 12 9 15 48 12 51 -5 146 8 175 24 18 10 22 6 100 -79
15 -17 27 -35 27 -41 0 -6 4 -11 10 -11 5 0 12 -11 16 -25 3 -14 10 -25 15
-25 14 0 11 -28 -3 -33 -8 -3 -6 -6 4 -6 19 -1 55 -48 45 -58 -4 -3 -13 0 -21
6 -9 7 -24 10 -36 6 -12 -4 -27 -2 -34 5 -8 6 -18 10 -22 9 -21 -4 -34 2 -34
15 0 20 -44 46 -69 39 -11 -3 -21 -1 -21 5 0 6 -12 12 -27 14 -18 2 -29 10
-31 21 -5 27 -38 57 -62 57 -11 0 -20 6 -20 13 0 17 -37 39 -45 27 -3 -6 1
-10 10 -10 9 0 15 -6 13 -12 -3 -8 -23 -13 -47 -14 -23 0 -46 -5 -49 -11 -4
-5 -19 -13 -34 -17 -16 -3 -28 -11 -28 -17 0 -6 -4 -8 -9 -4 -5 3 -12 1 -15
-4 -4 -5 -2 -12 4 -16 16 -10 13 -75 -4 -75 -8 0 -13 11 -14 28 -1 92 -18 126
-39 79 -9 -19 -8 -28 5 -40 27 -27 8 -28 -28 -2 -39 29 -52 32 -44 10 5 -11
-1 -15 -24 -15 -17 0 -32 6 -35 13 -3 9 -9 7 -24 -5 -24 -22 -43 -23 -43 -3 0
8 -4 15 -9 15 -5 0 -8 -8 -7 -17 0 -10 -4 -18 -11 -18 -6 0 -23 -10 -37 -22
-27 -24 -37 -18 -51 25 -6 21 -5 23 13 13 29 -15 49 -14 56 5 4 11 -6 21 -39
35 -24 11 -47 24 -50 29 -8 13 -62 13 -70 0 -3 -5 -18 -10 -32 -10 -15 0 -33
-10 -45 -25 -11 -14 -33 -32 -48 -40 -29 -15 -30 -14 -82 32 -114 100 -146
191 -99 278 36 68 160 165 210 165 6 0 11 4 11 9 0 5 18 12 40 16 22 4 42 11
46 16 3 5 34 9 69 9 56 0 64 2 58 17 -6 14 0 16 48 11 30 -2 70 -1 89 2 44 9
298 12 328 4z m302 -73 c0 -5 16 -12 35 -15 19 -4 35 -11 35 -15 0 -5 14 -11
30 -14 17 -4 30 -11 30 -17 0 -13 -17 -13 -25 0 -4 6 -10 8 -15 5 -10 -6 -70
15 -70 25 0 5 -9 12 -20 15 -21 7 -28 25 -10 25 6 0 10 -4 10 -9z m-15 -65
c22 -3 46 -5 53 -5 6 -1 12 -8 12 -16 0 -8 5 -15 10 -15 6 0 10 -20 10 -45 0
-25 -4 -45 -10 -45 -5 0 -10 -6 -10 -12 0 -7 -21 -28 -47 -45 -26 -18 -41 -33
-33 -33 17 0 58 26 84 52 28 29 37 75 22 118 l-13 38 55 -5 c31 -4 65 -11 76
-18 59 -32 86 -51 86 -57 0 -5 6 -8 13 -8 17 0 92 -86 117 -135 32 -63 27
-131 -13 -189 -19 -25 -49 -58 -68 -71 -19 -13 -38 -28 -44 -32 -5 -4 -26 -15
-45 -24 -34 -16 -37 -16 -58 1 -12 10 -22 22 -22 26 0 14 -34 84 -41 84 -4 0
-10 11 -13 25 -4 14 -11 25 -16 25 -6 0 -10 6 -10 13 0 7 -12 29 -27 48 -34
41 -158 167 -194 194 -53 42 -89 65 -99 65 -5 0 -10 3 -10 8 0 4 -20 16 -45
27 -45 20 -51 26 -38 39 7 7 231 1 318 -8z m-326 -24 c3 -6 19 -14 34 -17 15
-4 27 -11 27 -16 0 -5 5 -9 10 -9 12 0 73 -41 78 -52 2 -5 10 -8 17 -8 8 0 18
-6 22 -13 4 -7 25 -26 45 -42 36 -29 36 -29 16 -44 -25 -17 -241 -28 -332 -17
-51 7 -56 10 -56 32 0 13 5 24 10 24 6 0 10 8 10 18 1 9 9 35 20 57 11 22 19
46 20 53 0 6 5 12 10 12 6 0 10 7 10 15 0 27 -15 15 -34 -28 -10 -23 -24 -54
-31 -69 -8 -15 -16 -41 -20 -57 -6 -30 -35 -64 -35 -42 0 6 -8 11 -19 11 -36
0 -163 58 -203 93 -38 33 -35 43 14 51 23 4 47 11 53 15 9 8 51 18 175 41 56
10 151 5 159 -8z m-829 -16 c-32 -25 -60 -85 -65 -136 -4 -36 22 -130 35 -130
17 0 18 -31 1 -47 -35 -35 -128 -166 -137 -195 -4 -10 -10 -18 -14 -18 -5 0
-11 -13 -15 -30 -4 -16 -10 -30 -15 -30 -5 0 -11 -13 -15 -30 -4 -16 -10 -30
-13 -30 -9 0 -43 54 -66 104 -21 46 -25 166 -7 232 19 71 83 154 176 229 28
22 52 43 53 47 2 5 10 8 17 8 7 0 15 3 17 8 5 11 52 40 58 35 3 -3 -2 -10 -10
-17z m1631 -197 c27 -28 59 -65 71 -82 12 -18 27 -37 33 -44 28 -34 33 -41 39
-61 4 -12 11 -22 16 -22 4 0 11 -12 15 -27 3 -15 10 -30 14 -33 11 -7 51 -126
51 -150 0 -12 7 -23 15 -26 9 -4 15 -19 15 -38 0 -18 5 -37 12 -44 15 -15 18
-349 3 -372 -5 -8 -11 -26 -13 -39 -7 -52 -20 -63 -65 -57 -23 3 -107 10 -187
16 -199 13 -213 15 -225 34 -17 28 14 69 62 81 23 6 45 13 49 18 14 14 24 7
24 -18 0 -14 -4 -25 -10 -25 -5 0 -10 -5 -10 -10 0 -7 6 -7 19 -1 10 6 21 8
24 5 3 -3 11 -3 17 1 8 5 3 16 -16 34 -28 26 -28 26 -6 29 12 2 22 8 22 13 0
5 6 9 12 9 21 0 120 72 169 122 25 27 55 67 66 90 25 51 41 134 24 124 -6 -4
-11 -20 -11 -36 0 -43 -55 -139 -108 -187 -26 -24 -50 -43 -54 -43 -5 0 -8 16
-8 36 0 22 -9 47 -25 68 -32 42 -31 47 5 40 22 -5 31 -2 36 9 3 9 13 14 22 10
10 -3 6 5 -10 20 -15 14 -24 28 -21 31 10 10 17 7 48 -20 18 -15 31 -21 33
-14 4 11 -30 50 -44 50 -3 0 -23 12 -43 28 -60 45 -149 92 -176 92 -17 0 -78
31 -87 44 -13 19 -9 26 20 39 35 15 45 23 102 78 60 58 79 121 60 199 -7 28
-16 50 -20 50 -4 0 -10 7 -14 15 -9 26 4 17 55 -36z m-1951 -117 c0 -4 -5 -13
-11 -19 -16 -16 -12 -164 6 -199 8 -16 15 -35 15 -41 0 -7 5 -13 10 -13 6 0
10 -5 10 -11 0 -20 75 -107 113 -130 20 -13 37 -27 37 -31 0 -5 7 -8 15 -8 8
0 15 -3 15 -7 0 -15 188 -113 214 -113 9 0 16 -4 16 -10 0 -5 7 -10 16 -10 9
0 30 -6 47 -14 44 -19 166 -56 188 -56 10 0 20 -4 23 -9 3 -5 27 -12 53 -16
27 -4 53 -10 58 -13 10 -7 67 -20 205 -47 231 -46 393 -72 535 -85 55 -5 123
-14 150 -19 28 -6 86 -13 130 -16 113 -9 171 -14 245 -23 l65 -8 -40 -13 c-48
-15 -114 -40 -136 -51 -9 -5 -33 -12 -53 -15 -20 -4 -36 -11 -36 -15 0 -4 -16
-11 -35 -14 -19 -4 -47 -13 -62 -21 -15 -8 -36 -15 -45 -15 -9 0 -19 -4 -22
-9 -4 -5 -24 -12 -46 -16 -22 -4 -42 -11 -46 -16 -7 -12 -101 -12 -108 0 -3 5
-37 12 -76 16 -39 4 -72 11 -75 15 -3 5 -34 12 -70 15 -36 4 -65 11 -65 15 0
4 -26 11 -57 15 -32 4 -62 10 -68 15 -5 4 -31 11 -57 14 -26 4 -50 11 -53 16
-3 4 -28 11 -55 15 -27 4 -52 11 -56 16 -3 5 -15 9 -27 9 -12 0 -35 7 -51 15
-15 8 -36 15 -45 15 -9 0 -29 7 -45 15 -15 8 -34 15 -42 15 -7 0 -28 6 -46 14
-18 8 -49 21 -70 30 -20 9 -39 16 -43 16 -3 0 -33 13 -67 30 -33 16 -64 30
-69 30 -4 0 -42 20 -82 45 -41 25 -79 45 -85 45 -6 0 -12 3 -14 8 -1 4 -23 21
-48 37 -116 78 -224 219 -241 315 -5 26 -6 22 -4 -16 5 -83 75 -182 195 -277
36 -29 67 -55 68 -59 2 -5 9 -8 16 -8 7 0 30 -13 52 -29 21 -16 49 -32 62 -35
12 -4 22 -12 22 -17 0 -5 6 -9 13 -9 6 0 39 -14 72 -30 33 -16 64 -30 68 -30
7 0 57 -21 122 -50 28 -13 245 -84 335 -109 41 -12 97 -28 124 -36 26 -8 57
-15 68 -15 11 0 27 -4 37 -10 10 -5 43 -14 72 -19 30 -6 88 -18 129 -27 41 -9
108 -21 148 -27 60 -9 73 -15 77 -32 3 -11 7 -144 8 -295 2 -151 7 -299 11
-328 4 -28 5 -52 1 -52 -4 0 -28 7 -54 15 -25 8 -75 21 -111 30 -36 9 -73 21
-82 26 -9 5 -35 12 -58 15 -22 4 -40 10 -40 14 0 5 -18 11 -40 15 -22 4 -42
10 -45 15 -3 5 -23 11 -45 15 -22 4 -40 11 -40 16 0 5 -8 9 -17 9 -10 1 -36 9
-58 20 -22 11 -48 19 -57 20 -10 0 -18 5 -18 10 0 6 -5 10 -11 10 -27 0 -255
112 -373 183 -106 63 -199 127 -204 139 -2 5 -10 8 -17 8 -7 0 -15 3 -17 8 -1
4 -23 23 -48 44 -66 53 -139 126 -185 183 -22 28 -42 52 -45 55 -14 14 -50 70
-50 79 0 5 -3 11 -7 13 -5 2 -18 26 -31 53 -13 28 -27 58 -33 67 -5 10 -9 23
-9 29 0 6 -6 25 -14 42 -37 82 -44 368 -11 422 7 11 15 42 19 69 3 27 10 54
15 60 5 6 12 26 16 44 3 17 10 32 15 32 4 0 11 11 14 25 6 23 26 36 26 17z
m360 -37 c19 -19 41 -35 48 -35 17 0 15 -20 -3 -20 -8 0 -15 -6 -15 -12 0 -7
-3 -24 -7 -37 -6 -22 -4 -23 26 -16 30 6 31 5 31 -24 0 -21 -5 -31 -15 -31 -9
0 -12 6 -9 15 4 9 0 15 -10 15 -11 0 -16 -9 -16 -30 0 -23 -5 -30 -19 -30 -11
0 -26 -7 -35 -15 -8 -8 -18 -15 -22 -15 -4 0 -16 -7 -26 -17 -10 -9 -33 -16
-50 -15 -29 1 -31 -1 -15 -12 10 -8 17 -26 17 -49 0 -31 -2 -35 -22 -30 -13 3
-28 10 -35 15 -14 11 -36 1 -28 -13 11 -16 -3 -10 -29 15 -28 25 -31 37 -17
64 6 9 20 40 33 67 13 28 26 52 31 53 4 2 7 8 7 14 0 6 14 27 30 48 17 21 30
41 30 45 0 8 72 84 80 85 3 0 21 -16 40 -35z m768 -26 c-5 -15 -38 16 -38 37
0 11 5 10 21 -5 12 -11 19 -25 17 -32z m182 16 c-7 -9 -15 -13 -17 -11 -7 7 7
26 19 26 6 0 6 -6 -2 -15z m-710 -30 c0 -8 -7 -15 -16 -15 -9 0 -18 -9 -21
-21 -4 -13 -12 -19 -26 -17 -24 4 -36 28 -13 28 9 0 24 9 33 20 21 24 43 26
43 5z m-40 -90 c0 -8 3 -21 6 -30 5 -13 2 -16 -12 -13 -11 2 -23 -4 -29 -16
-5 -10 -13 -18 -17 -17 -5 0 -28 1 -53 1 -53 0 -60 15 -10 24 21 4 35 13 35
21 0 8 4 15 9 15 5 0 12 8 16 19 4 13 12 17 30 13 14 -2 25 -10 25 -17z m60 5
c0 -5 -4 -10 -9 -10 -6 0 -13 5 -16 10 -3 6 1 10 9 10 9 0 16 -4 16 -10z
m-194 -254 c8 -8 14 -19 14 -24 0 -5 9 -17 20 -27 11 -10 20 -28 20 -41 0 -13
5 -35 12 -49 6 -14 8 -28 3 -33 -4 -4 -10 -1 -12 6 -3 6 -13 12 -23 12 -9 0
-23 6 -29 14 -7 8 -28 17 -49 21 -20 4 -39 10 -42 13 -8 10 -43 32 -62 38 -24
8 -23 19 4 46 13 13 35 22 56 22 31 1 37 -3 45 -29 6 -16 19 -36 29 -44 11 -7
23 -23 28 -35 8 -19 9 -19 9 8 1 17 -11 43 -29 66 -16 21 -30 41 -30 44 0 11
21 6 36 -8z m1513 -60 c-13 -44 -11 -60 9 -82 17 -19 42 -68 42 -83 0 -4 -20
-17 -44 -29 -49 -25 -81 -20 -73 10 7 25 -44 120 -60 113 -7 -2 -13 0 -13 5 0
6 -8 10 -19 10 -30 0 -43 24 -33 62 7 25 13 32 28 30 10 -2 32 -5 48 -7 16 -2
33 -9 37 -17 6 -9 9 -4 9 15 0 31 23 37 39 10 9 -16 10 -15 11 6 0 24 1 24 14
6 10 -13 11 -28 5 -49z m-1309 30 c0 -7 6 -19 14 -25 12 -10 15 -8 18 10 2 12
9 24 17 27 10 3 13 -2 9 -21 -4 -19 2 -33 18 -48 30 -28 32 -59 3 -59 -11 0
-28 7 -37 16 -11 12 -27 15 -60 11 -43 -5 -43 -4 -37 22 11 49 27 81 41 81 8
0 14 -6 14 -14z m-74 -109 c1 -15 5 -37 9 -49 3 -13 3 -18 -2 -12 -4 6 -16 13
-25 17 -12 4 -18 17 -18 35 0 50 31 57 36 9z m1288 -59 c8 -18 17 -47 21 -64
5 -28 3 -32 -21 -38 -14 -4 -29 -5 -32 -1 -3 3 -1 5 5 5 16 0 24 61 14 98 -12
41 -6 41 13 0z m-184 -178 c0 -5 10 -9 22 -7 14 1 23 -4 26 -15 3 -15 -4 -18
-33 -18 -20 0 -43 6 -51 14 -12 13 -12 16 3 25 23 13 33 14 33 1z m1044 -1051
c-9 -10 -23 -19 -31 -19 -7 0 -13 -5 -13 -10 0 -6 -10 -15 -22 -20 -25 -11
-60 -32 -68 -41 -3 -3 -34 -23 -70 -44 -36 -22 -70 -45 -76 -53 -9 -13 -12
-12 -17 2 -6 16 12 46 28 46 8 0 69 43 73 53 2 4 8 7 13 7 6 0 51 27 102 60
86 56 122 64 81 19z m-314 -209 c0 -34 -4 -41 -25 -46 -14 -3 -25 -10 -25 -15
0 -5 -9 -9 -20 -9 -17 0 -20 7 -20 40 0 33 3 40 20 40 10 0 25 7 32 15 24 26
38 17 38 -25z"/>
<path d="M1732 2503 c-20 -3 -32 -9 -29 -16 5 -16 66 -15 72 1 3 7 9 10 15 7
5 -3 10 -1 10 4 0 11 -6 11 -68 4z"/>
<path d="M2607 2313 c-4 -3 -7 -9 -7 -13 0 -8 45 -30 60 -30 19 0 10 19 -12
26 -13 4 -26 11 -29 15 -3 5 -8 6 -12 2z"/>
<path d="M3000 2100 c0 -5 5 -10 11 -10 5 0 7 5 4 10 -3 6 -8 10 -11 10 -2 0
-4 -4 -4 -10z"/>
<path d="M1357 2223 c-11 -11 -8 -48 5 -61 8 -8 9 -15 3 -20 -6 -4 -16 -17
-23 -29 -12 -22 -11 -23 23 -23 38 0 57 22 36 43 -6 6 -11 23 -11 38 0 47 -15
71 -33 52z"/>
<path d="M1308 2173 c-10 -2 -18 -8 -18 -13 0 -5 -3 -15 -6 -24 -4 -11 0 -16
11 -16 19 0 44 27 45 48 0 12 -3 13 -32 5z"/>
<path d="M1460 1873 c0 -21 3 -24 9 -14 5 8 7 20 4 28 -8 21 -13 15 -13 -14z"/>
<path d="M3316 1395 c-18 -14 -16 -15 26 -15 26 0 49 -4 53 -9 3 -6 26 -13 52
-17 25 -4 58 -13 72 -20 14 -8 34 -14 43 -14 9 0 19 -4 23 -9 3 -5 19 -12 35
-16 17 -4 30 -11 30 -16 0 -5 7 -9 15 -9 8 0 32 -18 54 -40 36 -37 41 -39 70
-29 17 6 31 13 31 17 0 11 -82 82 -95 82 -8 0 -15 4 -15 8 0 4 -19 13 -42 20
-24 7 -65 20 -93 28 -27 9 -86 22 -130 29 -44 7 -87 16 -95 19 -8 3 -24 -1
-34 -9z"/>
<path d="M3236 1372 c-3 -6 -24 -13 -46 -17 -57 -10 -49 -21 20 -29 33 -4 62
-11 65 -15 2 -5 26 -12 51 -16 26 -4 54 -10 63 -15 9 -4 46 -22 83 -40 37 -17
74 -36 81 -43 7 -7 27 -25 44 -40 l30 -28 57 26 c31 14 56 29 56 34 0 4 -12
17 -26 27 -14 10 -31 24 -38 30 -15 14 -76 44 -90 44 -6 0 -23 6 -37 14 -14 7
-43 16 -64 20 -20 4 -45 11 -54 16 -14 7 -74 21 -162 37 -15 3 -29 0 -33 -5z"/>
<path d="M3095 1323 c-11 -3 -24 -9 -30 -13 -5 -4 -22 -10 -37 -14 -47 -11
-31 -23 37 -31 36 -3 67 -10 70 -15 3 -4 25 -11 50 -14 25 -4 45 -11 45 -15 0
-5 16 -12 35 -15 19 -4 35 -11 35 -16 0 -6 9 -10 19 -10 11 0 26 -7 35 -15 8
-8 18 -15 23 -15 8 0 55 -43 81 -75 14 -17 42 -20 42 -5 0 6 6 10 13 10 10 0
84 35 96 46 6 5 -53 53 -66 54 -7 0 -13 4 -13 10 0 5 -11 12 -25 16 -14 3 -25
10 -25 15 0 4 -16 11 -35 15 -19 3 -35 10 -35 14 0 4 -17 11 -37 15 -21 4 -42
10 -48 15 -5 4 -32 11 -60 15 -27 4 -57 10 -65 15 -22 11 -82 18 -105 13z"/>
<path d="M2920 1259 c-24 -11 -24 -11 -5 -19 11 -5 32 -9 47 -9 15 -1 29 -5
33 -10 3 -6 26 -13 50 -17 25 -3 45 -10 45 -15 0 -5 10 -9 21 -9 59 0 258
-125 235 -147 -4 -4 -13 -1 -19 8 -16 21 -103 79 -119 79 -7 0 -22 7 -32 15
-11 8 -28 15 -38 15 -10 0 -18 4 -18 8 0 8 -41 19 -157 45 -29 6 -53 15 -53
19 0 4 -13 8 -30 8 -24 0 -36 -9 -60 -42 -16 -22 -30 -46 -30 -53 0 -12 54
-29 150 -46 30 -6 64 -14 75 -19 11 -5 44 -12 72 -15 29 -4 55 -10 58 -15 3
-4 29 -11 60 -15 30 -3 57 -11 61 -16 4 -7 10 -6 18 0 6 6 21 10 31 10 71 -1
135 24 128 50 -8 30 -161 123 -225 136 -18 4 -37 11 -43 15 -5 4 -30 11 -55
15 -25 4 -49 11 -55 15 -18 14 -119 20 -145 9z"/>
<path d="M3838 1199 c-10 -5 -14 -17 -11 -29 4 -13 -1 -26 -13 -35 -28 -22
-44 -18 -44 10 0 21 -3 24 -17 15 -27 -15 -181 -85 -243 -110 -30 -12 -67 -28
-81 -36 -15 -8 -50 -15 -79 -16 -56 -3 -64 -8 -55 -38 6 -17 15 -20 73 -19 37
0 61 3 55 6 -23 9 -14 47 14 61 37 16 43 15 43 -8 0 -12 -10 -25 -22 -31 -20
-8 -19 -9 7 -3 17 3 32 10 33 15 2 5 9 9 15 9 6 0 31 9 56 21 25 11 60 27 76
34 17 8 60 28 96 44 36 17 73 31 82 31 21 0 39 34 35 65 -2 19 -6 22 -20 14z"/>
<path d="M3788 1173 c7 -3 16 -2 19 1 4 3 -2 6 -13 5 -11 0 -14 -3 -6 -6z"/>
<path d="M2787 1104 c-7 -7 1 -384 9 -451 3 -24 9 -45 15 -48 5 -4 9 -16 9
-28 0 -12 4 -28 9 -36 7 -11 14 -9 34 12 26 28 65 35 85 15 22 -22 26 2 14 73
-15 85 -15 146 -2 154 6 3 10 48 10 100 0 52 -4 97 -10 100 -5 3 -10 19 -10
35 0 35 -16 45 -85 55 -27 4 -55 11 -61 16 -6 5 -14 6 -17 3z m115 -49 c34 -7
36 -9 42 -53 11 -82 12 -184 1 -198 -8 -12 -16 -11 -49 7 -61 32 -70 46 -72
108 -1 34 0 40 3 15 4 -43 38 -91 80 -113 27 -14 33 -14 33 -1 0 6 -7 10 -15
10 -8 0 -15 5 -15 10 0 6 -6 10 -13 10 -22 0 -47 56 -47 103 0 25 -4 49 -10
52 -5 3 -11 16 -11 28 -1 16 -3 14 -8 -8 -4 -20 -9 -25 -12 -15 -4 8 -2 26 2
39 7 18 14 22 32 18 12 -3 38 -9 59 -12z"/>
<path d="M2970 1048 c0 -8 17 -14 42 -16 23 -1 47 -7 52 -11 6 -5 47 -14 91
-21 59 -9 85 -18 99 -33 l18 -22 -3 25 c-4 21 -12 26 -69 37 -115 24 -144 31
-180 42 -44 14 -50 14 -50 -1z"/>
<path d="M3852 1030 c0 -14 2 -19 5 -12 2 6 2 18 0 25 -3 6 -5 1 -5 -13z"/>
<path d="M2987 1023 c-4 -7 -5 -41 -2 -75 6 -51 12 -133 15 -170 0 -3 14 -9
30 -13 17 -4 30 -11 30 -16 0 -5 7 -9 16 -9 9 0 28 -7 42 -14 15 -8 45 -23 67
-32 22 -9 67 -30 101 -45 70 -33 83 -36 62 -11 -12 12 -18 52 -23 147 -6 102
-11 132 -24 142 -35 27 -36 21 -15 -199 3 -32 3 -58 0 -58 -3 0 -23 9 -43 20
-21 11 -43 20 -50 20 -7 0 -13 5 -13 10 0 6 -6 10 -12 10 -7 1 -31 9 -53 20
-22 11 -45 19 -51 20 -5 0 -20 9 -32 20 -17 16 -22 33 -23 78 -2 89 -13 169
-22 155z"/>
<path d="M3858 847 c-9 -9 -20 -17 -23 -17 -4 0 -56 -29 -115 -65 -59 -36
-112 -65 -118 -65 -6 0 -12 -3 -14 -7 -1 -5 -37 -25 -79 -45 -55 -28 -89 -38
-123 -38 -42 0 -67 8 -173 56 -17 8 -36 14 -42 14 -6 0 -11 4 -11 9 0 5 -16
12 -35 15 -19 4 -35 11 -35 16 0 6 -6 10 -12 10 -7 1 -31 9 -53 20 -22 11 -44
19 -48 20 -4 0 -5 -33 -1 -72 3 -40 7 -89 7 -108 2 -28 6 -36 25 -38 12 -2 22
-8 22 -13 0 -5 9 -9 20 -9 21 0 70 -44 70 -64 0 -22 60 -74 93 -81 18 -4 51
-13 75 -21 23 -8 63 -14 88 -14 53 0 117 27 110 45 -6 16 11 31 92 81 35 21
75 47 90 56 15 10 33 21 40 24 7 4 43 26 80 51 52 34 68 40 70 28 4 -20 8 -19
32 5 24 24 28 101 6 120 -8 6 -16 32 -18 58 -3 43 -4 45 -20 29z m2 -79 c0
-18 -16 -32 -65 -60 -35 -21 -68 -38 -74 -38 -6 0 -11 -4 -11 -10 0 -5 -4 -10
-10 -10 -5 0 -54 -27 -109 -60 -55 -33 -103 -60 -106 -60 -15 0 2 44 20 54 11
6 22 13 25 16 3 3 16 11 30 18 14 7 48 26 75 42 28 17 61 36 75 43 14 6 31 17
38 24 7 7 19 13 27 13 7 0 15 3 17 8 2 6 57 41 66 42 1 0 2 -10 2 -22z m-19
-99 c-11 -10 -23 -19 -26 -19 -3 0 -37 -20 -75 -45 -38 -25 -73 -45 -79 -45
-5 0 -11 -3 -13 -7 -4 -9 -65 -53 -73 -53 -3 0 -23 -11 -44 -24 -21 -14 -42
-22 -45 -19 -12 13 -5 41 12 47 9 3 31 15 47 26 17 11 37 23 45 27 8 4 34 20
56 35 23 15 47 28 53 28 6 0 11 4 11 9 0 5 10 13 23 17 12 4 24 10 27 14 3 3
25 18 50 33 38 22 46 24 48 11 2 -9 -5 -24 -17 -35z"/>
<path d="M3890 516 c0 -8 -6 -17 -12 -20 -28 -14 -204 -133 -221 -150 -6 -7
-20 -15 -30 -19 -9 -3 -54 -32 -100 -64 -82 -57 -82 -57 -155 -57 l-73 0 3
-35 c4 -49 34 -63 122 -58 43 2 71 8 74 15 2 7 8 12 13 12 11 0 72 42 77 53 2
4 9 7 16 7 7 0 21 9 31 20 10 11 24 20 31 20 7 0 14 3 16 8 2 4 21 19 44 35
22 15 50 36 62 47 12 11 25 20 29 20 4 0 29 20 56 44 43 41 47 48 47 90 0 34
-4 46 -15 46 -8 0 -15 -6 -15 -14z m-40 -88 c0 -21 -35 -68 -52 -68 -19 0 -7
59 14 74 30 21 38 20 38 -6z m-260 -187 c0 -21 -6 -32 -20 -36 -11 -3 -20 -11
-20 -16 0 -5 -6 -9 -14 -9 -22 0 -15 52 9 72 30 26 45 22 45 -11z"/>
<path d="M2848 469 c-12 -20 -18 -52 -18 -90 0 -68 14 -78 24 -17 7 43 54 98
83 98 50 0 130 -64 160 -127 9 -20 19 -31 21 -24 5 14 -31 84 -56 111 -25 27
-136 80 -169 80 -21 0 -33 -8 -45 -31z"/>
<path d="M2902 420 c-30 -28 -31 -131 -3 -193 32 -70 104 -137 146 -137 29 0
63 38 71 79 14 69 -51 210 -111 241 -17 8 -31 18 -33 23 -7 14 -49 7 -70 -13z
m79 -51 c11 -5 33 -28 49 -51 25 -34 30 -51 30 -99 0 -49 -3 -60 -21 -69 -11
-7 -23 -9 -27 -6 -3 3 0 6 7 6 9 0 8 4 -3 15 -8 8 -17 15 -20 15 -13 0 -46 41
-52 65 -7 27 -24 34 -24 10 0 -8 5 -15 10 -15 6 0 10 -6 10 -13 0 -7 14 -25
31 -40 18 -15 29 -30 26 -33 -6 -7 -49 34 -71 68 -13 20 -16 39 -12 68 3 25 2
39 -4 35 -6 -4 -7 1 -3 12 15 43 37 52 74 32z"/>
<path d="M3120 267 c0 -15 5 -27 11 -27 12 0 8 -72 -6 -105 -8 -19 -8 -19 9
-2 9 9 22 17 28 17 7 0 7 4 0 13 -5 6 -12 28 -15 47 -11 73 -27 107 -27 57z"/>
</g>
</svg>
