<svg width="113" height="74" fill="none" xmlns="http://www.w3.org/2000/svg"><path d="M2.5 49.5h-.966a1 1 0 0 0-.915 1.404L7.5 66.5H70l3-17h-3m-67.5 0 5.749-10.17a5 5 0 0 1 2.117-2.013l5.578-2.79A4.999 4.999 0 0 1 18.18 34h1.32m-17 15.5h26m0 0v-5m0 5H70m-41.5-5V36a2 2 0 0 0-2-2h-1m3 10.5h35m6.5 5v-5h-2m0 0V1h-4.5v4M68 44.5h-4.5m0 0V8m0-3h-19v3H46m17.5-3v3m0 0H46M25.5 34h-6m6 0v-8m-6 8v-8m0 0v-3.5a1 1 0 0 1 1-1h4a1 1 0 0 1 1 1V26m-6 0h6M17 46h-4v-4a2 2 0 0 1 2-2h2m0 6v-6m0 6h3.75M17 40h3.75m0 0h3.75v6h-3.75m0-6v6M7.5 54.5H45M46 8v4.5l-.274.105c-1.88.723-1.688 3.442.274 3.895v0m0 0v4m0-4v0a2 2 0 0 0 2-2v0m-2 6L35 27m11-6.5L58 27m-23 0v11h23V27m-23 0h23" stroke="url(#a)" stroke-linecap="round" stroke-linejoin="round"/><path d="M40.5 29v7m3.5-7v7" stroke="url(#b)" stroke-linecap="round" stroke-linejoin="round"/><path d="M49 29v7m3.5-7v7" stroke="url(#c)" stroke-linecap="round" stroke-linejoin="round"/><path d="M94.5 55v8.5" stroke="url(#d)" stroke-linecap="round" stroke-linejoin="round"/><path d="M71 63.5h26m2-8.5h4m0 0v-6.5h5.5M103 55h6.5m-6.5 0v2.5m-3.5-13 8.783 1.255a2 2 0 0 1 1.717 1.98v.765h-1.5m0 0 1 6.5m0 0h1.5a1 1 0 0 1 1 1v1.5m-2.5-2.5v2.5h2.5m0 0V60m0 0v2.5a1 1 0 0 1-1 1h-1.5M112 60h-1.5m-7.5-2.5c-2.5 0-6 2.8-6 6m6-6c4.5 0 6.5 4 6.5 6m-12.5 0h12.5" stroke="url(#e)" stroke-linecap="round" stroke-linejoin="round"/><path d="M68 39.5h31.5V55H72" stroke="url(#f)" stroke-linecap="round" stroke-linejoin="round"/><circle cx="103.25" cy="63.25" r="3.75" fill="#fff" stroke="url(#g)"/><circle cx="103.25" cy="63.25" r=".607" fill="url(#h)"/><circle cx="86.25" cy="63.25" r="3.75" fill="#fff" stroke="url(#i)"/><circle cx="86.25" cy="63.25" r=".607" fill="url(#j)"/><path fill="#fff" d="M2 64h70v10H2z"/><path d="M71.068 71.082c-2.085 0-3.09-.43-4.255-.929-1.264-.54-2.696-1.153-5.478-1.153-2.782 0-4.214.612-5.478 1.153-1.165.498-2.171.929-4.257.929s-3.091-.43-4.256-.929C46.08 69.613 44.648 69 41.866 69c-2.782 0-4.214.613-5.478 1.153-1.164.498-2.17.929-4.255.929s-3.093-.43-4.258-.929C26.612 69.613 25.18 69 22.4 69s-4.213.613-5.476 1.153c-1.165.498-2.17.929-4.256.929-2.085 0-3.092-.43-4.258-.929C7.146 69.613 5.713 69 2.932 69c-.247 0-.484.048-.66.135-.174.086-.272.202-.272.324s.098.239.273.325c.175.086.412.134.659.134 2.086 0 3.092.43 4.257.929C8.453 71.387 9.885 72 12.667 72c2.781 0 4.213-.613 5.476-1.153 1.165-.498 2.17-.929 4.256-.929 2.085 0 3.09.43 4.255.929 1.264.54 2.697 1.153 5.478 1.153 2.782 0 4.213-.612 5.477-1.153 1.164-.498 2.17-.929 4.257-.929 2.086 0 3.092.43 4.257.929C47.387 71.387 48.82 72 51.6 72c2.78 0 4.214-.612 5.478-1.153 1.164-.498 2.17-.929 4.257-.929 2.086 0 3.092.43 4.257.929 1.264.54 2.696 1.153 5.476 1.153.248 0 .484-.048.66-.135.174-.086.272-.202.272-.324s-.098-.239-.273-.325a1.537 1.537 0 0 0-.659-.134Z" fill="url(#k)"/><path d="M71.068 66.082c-2.085 0-3.09-.43-4.255-.929-1.264-.54-2.696-1.153-5.478-1.153-2.782 0-4.214.612-5.478 1.153-1.165.498-2.171.929-4.257.929s-3.091-.43-4.256-.929C46.08 64.613 44.648 64 41.866 64c-2.782 0-4.214.613-5.478 1.153-1.164.498-2.17.929-4.255.929s-3.093-.43-4.258-.929C26.612 64.613 25.18 64 22.4 64s-4.213.613-5.476 1.153c-1.165.498-2.17.929-4.256.929-2.085 0-3.092-.43-4.258-.929C7.146 64.613 5.713 64 2.932 64c-.247 0-.484.048-.66.135-.174.086-.272.202-.272.324s.098.239.273.325c.175.086.412.134.659.134 2.086 0 3.092.43 4.257.929C8.453 66.387 9.885 67 12.667 67c2.781 0 4.213-.613 5.476-1.153 1.165-.498 2.17-.929 4.256-.929 2.085 0 3.09.43 4.255.929 1.264.54 2.697 1.153 5.478 1.153 2.782 0 4.213-.612 5.477-1.153 1.164-.498 2.17-.929 4.257-.929 2.086 0 3.092.43 4.257.929C47.387 66.387 48.82 67 51.6 67c2.78 0 4.214-.612 5.478-1.153 1.164-.498 2.17-.929 4.257-.929 2.086 0 3.092.43 4.257.929 1.264.54 2.696 1.153 5.476 1.153.248 0 .484-.048.66-.135.174-.086.272-.202.272-.324s-.098-.239-.273-.325a1.537 1.537 0 0 0-.659-.134Z" fill="url(#l)"/><defs><radialGradient id="a" cx="0" cy="0" r="1" gradientUnits="userSpaceOnUse" gradientTransform="matrix(38.865 0 0 30.8984 36.407 33.7)"><stop stop-color="#D81719"/><stop offset=".369" stop-color="#D41719"/><stop offset=".751" stop-color="#C7181A"/><stop offset="1" stop-color="#BA181B"/></radialGradient><radialGradient id="b" cx="0" cy="0" r="1" gradientUnits="userSpaceOnUse" gradientTransform="matrix(1.86339 0 0 3.30212 42.246 32.495)"><stop stop-color="#D81719"/><stop offset=".369" stop-color="#D41719"/><stop offset=".751" stop-color="#C7181A"/><stop offset="1" stop-color="#BA181B"/></radialGradient><radialGradient id="c" cx="0" cy="0" r="1" gradientUnits="userSpaceOnUse" gradientTransform="matrix(1.86339 0 0 3.30212 50.746 32.495)"><stop stop-color="#D81719"/><stop offset=".369" stop-color="#D41719"/><stop offset=".751" stop-color="#C7181A"/><stop offset="1" stop-color="#BA181B"/></radialGradient><radialGradient id="d" cx="0" cy="0" r="1" gradientUnits="userSpaceOnUse" gradientTransform="matrix(.5324 0 0 4.00971 94.999 59.243)"><stop stop-color="#D81719"/><stop offset=".369" stop-color="#D41719"/><stop offset=".751" stop-color="#C7181A"/><stop offset="1" stop-color="#BA181B"/></radialGradient><radialGradient id="e" cx="0" cy="0" r="1" gradientUnits="userSpaceOnUse" gradientTransform="matrix(21.8283 0 0 8.96289 91.448 53.986)"><stop stop-color="#D81719"/><stop offset=".369" stop-color="#D41719"/><stop offset=".751" stop-color="#C7181A"/><stop offset="1" stop-color="#BA181B"/></radialGradient><radialGradient id="f" cx="0" cy="0" r="1" gradientUnits="userSpaceOnUse" gradientTransform="matrix(16.7705 0 0 7.31183 83.71 47.238)"><stop stop-color="#D81719"/><stop offset=".369" stop-color="#D41719"/><stop offset=".751" stop-color="#C7181A"/><stop offset="1" stop-color="#BA181B"/></radialGradient><radialGradient id="g" cx="0" cy="0" r="1" gradientUnits="userSpaceOnUse" gradientTransform="matrix(4.52537 0 0 4.00971 103.239 63.243)"><stop stop-color="#D81719"/><stop offset=".369" stop-color="#D41719"/><stop offset=".751" stop-color="#C7181A"/><stop offset="1" stop-color="#BA181B"/></radialGradient><radialGradient id="h" cx="0" cy="0" r="1" gradientUnits="userSpaceOnUse" gradientTransform="matrix(.64648 0 0 .57282 103.249 63.249)"><stop stop-color="#D81719"/><stop offset=".369" stop-color="#D41719"/><stop offset=".751" stop-color="#C7181A"/><stop offset="1" stop-color="#BA181B"/></radialGradient><radialGradient id="i" cx="0" cy="0" r="1" gradientUnits="userSpaceOnUse" gradientTransform="matrix(4.52537 0 0 4.00971 86.24 63.243)"><stop stop-color="#D81719"/><stop offset=".369" stop-color="#D41719"/><stop offset=".751" stop-color="#C7181A"/><stop offset="1" stop-color="#BA181B"/></radialGradient><radialGradient id="j" cx="0" cy="0" r="1" gradientUnits="userSpaceOnUse" gradientTransform="matrix(.64648 0 0 .57282 86.249 63.249)"><stop stop-color="#D81719"/><stop offset=".369" stop-color="#D41719"/><stop offset=".751" stop-color="#C7181A"/><stop offset="1" stop-color="#BA181B"/></radialGradient><radialGradient id="k" cx="0" cy="0" r="1" gradientUnits="userSpaceOnUse" gradientTransform="matrix(37.2678 0 0 1.41519 36.911 70.498)"><stop stop-color="#D81719"/><stop offset=".369" stop-color="#D41719"/><stop offset=".751" stop-color="#C7181A"/><stop offset="1" stop-color="#BA181B"/></radialGradient><radialGradient id="l" cx="0" cy="0" r="1" gradientUnits="userSpaceOnUse" gradientTransform="matrix(37.2678 0 0 1.41519 36.911 65.498)"><stop stop-color="#D81719"/><stop offset=".369" stop-color="#D41719"/><stop offset=".751" stop-color="#C7181A"/><stop offset="1" stop-color="#BA181B"/></radialGradient></defs></svg>