<svg width="106" height="67" fill="none" xmlns="http://www.w3.org/2000/svg"><path stroke="url(#a)" d="M42.819 20.689h1.969"/><path stroke="url(#b)" d="M49.713 20.689h1.97"/><path stroke="url(#c)" d="M56.607 20.689h1.97"/><path stroke="url(#d)" d="M63.501 20.689h1.97"/><path stroke="url(#e)" d="M70.395 20.689h1.97"/><path stroke="url(#f)" d="M77.289 20.689h1.969"/><path stroke="url(#g)" d="M13.273 20.689h24.622"/><path d="M84.183 13.31H17.779a1 1 0 0 1-.857-.485L10.409 1.971A2 2 0 0 0 8.694 1H2.963a2 2 0 0 0-2 2v16.872a5 5 0 0 0 1.159 3.2l2.266 2.72a5 5 0 0 0 3.841 1.799h16.954a1 1 0 0 1 .691.277L36.91 38.424m47.273-25.113 16.57 6.335c.114.044.235.064.356.074.642.057 1.286.407 1.874.977m-18.8-7.386v6.386a1 1 0 0 0 1 1h17.8M50.609 56.151l-1.228 8.71a1 1 0 0 0 .99 1.139h9.955a4 4 0 0 0 3.7-2.482l3.023-7.367m-16.44 0h16.44m-16.44 0 2.5-17.727m13.94 17.727 7.272-17.727m0 0 3.879-9.453a1 1 0 0 0-.925-1.38H55.506a1 1 0 0 0-.99.86l-1.407 9.973m21.212 0h6.907m-28.119 0h-8.1m-8.1 0L27.555 41.5m9.356-3.076 2.271 5.3a1 1 0 0 0 1.72.204l4.109-5.504m-8.1 0h8.1M.963 50.242l4.924-1.618m0 0L4.213 43.3a1 1 0 0 1 .637-1.248l5.56-1.854a1 1 0 0 1 1.245.576l2.11 5.258m-7.878 2.59 7.879-2.59m0 0 6.401-2.104m0 0-2.055-5.007a1 1 0 0 1 .609-1.329l5.482-1.827a1 1 0 0 1 1.243.57l2.108 5.164m-7.387 2.429 7.387-2.429m53.674-3.076h14.623c.1 0 .201-.015.296-.045 11.777-3.69 10.248-14.378 6.836-17.682M81.228 38.424l2.242 5.232a1 1 0 0 0 1.742.176l3.402-4.915" stroke="url(#h)" stroke-linecap="round" stroke-linejoin="round"/><circle cx="39.313" cy="49.75" r=".65" fill="url(#i)"/><circle cx="39.313" cy="49.75" r="5.35" stroke="url(#j)"/><circle cx="84.813" cy="49.75" r=".65" fill="url(#k)"/><circle cx="84.813" cy="49.75" r="5.35" stroke="url(#l)"/><defs><radialGradient id="a" cx="0" cy="0" r="1" gradientUnits="userSpaceOnUse" gradientTransform="matrix(1.04866 0 0 .47173 43.801 21.689)"><stop stop-color="#D81719"/><stop offset=".369" stop-color="#D41719"/><stop offset=".751" stop-color="#C7181A"/><stop offset="1" stop-color="#BA181B"/></radialGradient><radialGradient id="b" cx="0" cy="0" r="1" gradientUnits="userSpaceOnUse" gradientTransform="matrix(1.04866 0 0 .47173 50.695 21.689)"><stop stop-color="#D81719"/><stop offset=".369" stop-color="#D41719"/><stop offset=".751" stop-color="#C7181A"/><stop offset="1" stop-color="#BA181B"/></radialGradient><radialGradient id="c" cx="0" cy="0" r="1" gradientUnits="userSpaceOnUse" gradientTransform="matrix(1.04866 0 0 .47173 57.59 21.689)"><stop stop-color="#D81719"/><stop offset=".369" stop-color="#D41719"/><stop offset=".751" stop-color="#C7181A"/><stop offset="1" stop-color="#BA181B"/></radialGradient><radialGradient id="d" cx="0" cy="0" r="1" gradientUnits="userSpaceOnUse" gradientTransform="matrix(1.04866 0 0 .47173 64.483 21.689)"><stop stop-color="#D81719"/><stop offset=".369" stop-color="#D41719"/><stop offset=".751" stop-color="#C7181A"/><stop offset="1" stop-color="#BA181B"/></radialGradient><radialGradient id="e" cx="0" cy="0" r="1" gradientUnits="userSpaceOnUse" gradientTransform="matrix(1.04866 0 0 .47173 71.377 21.689)"><stop stop-color="#D81719"/><stop offset=".369" stop-color="#D41719"/><stop offset=".751" stop-color="#C7181A"/><stop offset="1" stop-color="#BA181B"/></radialGradient><radialGradient id="f" cx="0" cy="0" r="1" gradientUnits="userSpaceOnUse" gradientTransform="matrix(1.04866 0 0 .47173 78.27 21.689)"><stop stop-color="#D81719"/><stop offset=".369" stop-color="#D41719"/><stop offset=".751" stop-color="#C7181A"/><stop offset="1" stop-color="#BA181B"/></radialGradient><radialGradient id="g" cx="0" cy="0" r="1" gradientUnits="userSpaceOnUse" gradientTransform="matrix(13.1083 0 0 .47173 25.553 21.689)"><stop stop-color="#D81719"/><stop offset=".369" stop-color="#D41719"/><stop offset=".751" stop-color="#C7181A"/><stop offset="1" stop-color="#BA181B"/></radialGradient><radialGradient id="h" cx="0" cy="0" r="1" gradientUnits="userSpaceOnUse" gradientTransform="matrix(55.6249 0 0 30.6625 53.07 33.45)"><stop stop-color="#D81719"/><stop offset=".369" stop-color="#D41719"/><stop offset=".751" stop-color="#C7181A"/><stop offset="1" stop-color="#BA181B"/></radialGradient><radialGradient id="i" cx="0" cy="0" r="1" gradientUnits="userSpaceOnUse" gradientTransform="matrix(.69212 0 0 .61325 39.311 49.749)"><stop stop-color="#D81719"/><stop offset=".369" stop-color="#D41719"/><stop offset=".751" stop-color="#C7181A"/><stop offset="1" stop-color="#BA181B"/></radialGradient><radialGradient id="j" cx="0" cy="0" r="1" gradientUnits="userSpaceOnUse" gradientTransform="matrix(6.22904 0 0 5.51925 39.298 49.741)"><stop stop-color="#D81719"/><stop offset=".369" stop-color="#D41719"/><stop offset=".751" stop-color="#C7181A"/><stop offset="1" stop-color="#BA181B"/></radialGradient><radialGradient id="k" cx="0" cy="0" r="1" gradientUnits="userSpaceOnUse" gradientTransform="matrix(.69212 0 0 .61325 84.811 49.749)"><stop stop-color="#D81719"/><stop offset=".369" stop-color="#D41719"/><stop offset=".751" stop-color="#C7181A"/><stop offset="1" stop-color="#BA181B"/></radialGradient><radialGradient id="l" cx="0" cy="0" r="1" gradientUnits="userSpaceOnUse" gradientTransform="matrix(6.22904 0 0 5.51925 84.798 49.741)"><stop stop-color="#D81719"/><stop offset=".369" stop-color="#D41719"/><stop offset=".751" stop-color="#C7181A"/><stop offset="1" stop-color="#BA181B"/></radialGradient></defs></svg>