<svg width="104" height="51" fill="none" xmlns="http://www.w3.org/2000/svg"><circle cx="10.722" cy="44.056" r="6.444" stroke="url(#a)"/><circle cx="38.5" cy="44.056" r="6.444" stroke="url(#b)"/><circle cx="57.944" cy="44.056" r="6.444" stroke="url(#c)"/><circle cx="85.722" cy="44.056" r="6.444" stroke="url(#d)"/><path d="M95.833 44.056H4a3 3 0 0 1-3-3v-31.5a3 3 0 0 1 3-3h16.444V2a1 1 0 0 1 1-1h25.084a1 1 0 0 1 1 1v4.556h28.957a2 2 0 0 1 1.501.677l4.264 4.84L94.519 26l4.282 4.861 2.848 3.233c.835.948.891 2.353.132 3.364l-4.348 5.798a2 2 0 0 1-1.6.8Z" fill="#fff"/><path d="M20.444 6.556H4a3 3 0 0 0-3 3V30.86M20.444 6.556V2a1 1 0 0 1 1-1h25.084a1 1 0 0 1 1 1v4.556m-27.084 0h27.084m0 0h28.957a2 2 0 0 1 1.501.677l4.264 4.84M1 30.862h97.8m-97.8 0v6.597m97.8-6.597 2.849 3.233c.835.948.891 2.353.132 3.364v0m-2.98-6.597L94.519 26M1 37.458v3.598a3 3 0 0 0 3 3h91.833a2 2 0 0 0 1.6-.8l4.348-5.798M1 37.458h100.781M82.25 12.074h-8.007c-.89 0-1.337 1.075-.708 1.706l11.601 11.632a2 2 0 0 0 1.416.588h7.966M82.25 12.074 94.519 26" stroke="url(#e)" stroke-linecap="round" stroke-linejoin="round"/><path d="M1 50.306h20.139m80.555 0H76m-54.861 0v-6.25m0 6.25h6.944m0 0v-6.25m0 6.25h39.584m0 0v-6.25H76v6.25m-8.333 0H76" stroke="url(#f)" stroke-linecap="round" stroke-linejoin="round"/><rect x="9.834" y="14" width="12.889" height="10.111" rx=".5" stroke="url(#g)"/><rect x="32.056" y="14" width="12.889" height="10.111" rx=".5" stroke="url(#h)"/><rect x="54.278" y="14" width="12.889" height="10.111" rx=".5" stroke="url(#i)"/><defs><radialGradient id="a" cx="0" cy="0" r="1" gradientUnits="userSpaceOnUse" gradientTransform="matrix(7.3944 0 0 6.55182 10.705 44.045)"><stop stop-color="#D81719"/><stop offset=".369" stop-color="#D41719"/><stop offset=".751" stop-color="#C7181A"/><stop offset="1" stop-color="#BA181B"/></radialGradient><radialGradient id="b" cx="0" cy="0" r="1" gradientUnits="userSpaceOnUse" gradientTransform="matrix(7.3944 0 0 6.55182 38.483 44.045)"><stop stop-color="#D81719"/><stop offset=".369" stop-color="#D41719"/><stop offset=".751" stop-color="#C7181A"/><stop offset="1" stop-color="#BA181B"/></radialGradient><radialGradient id="c" cx="0" cy="0" r="1" gradientUnits="userSpaceOnUse" gradientTransform="matrix(7.3944 0 0 6.55182 57.927 44.045)"><stop stop-color="#D81719"/><stop offset=".369" stop-color="#D41719"/><stop offset=".751" stop-color="#C7181A"/><stop offset="1" stop-color="#BA181B"/></radialGradient><radialGradient id="d" cx="0" cy="0" r="1" gradientUnits="userSpaceOnUse" gradientTransform="matrix(7.3944 0 0 6.55182 85.705 44.045)"><stop stop-color="#D81719"/><stop offset=".369" stop-color="#D41719"/><stop offset=".751" stop-color="#C7181A"/><stop offset="1" stop-color="#BA181B"/></radialGradient><radialGradient id="e" cx="0" cy="0" r="1" gradientUnits="userSpaceOnUse" gradientTransform="matrix(54.3488 0 0 20.3106 51.912 22.495)"><stop stop-color="#D81719"/><stop offset=".369" stop-color="#D41719"/><stop offset=".751" stop-color="#C7181A"/><stop offset="1" stop-color="#BA181B"/></radialGradient><radialGradient id="f" cx="0" cy="0" r="1" gradientUnits="userSpaceOnUse" gradientTransform="matrix(53.6094 0 0 2.94832 51.22 47.176)"><stop stop-color="#D81719"/><stop offset=".369" stop-color="#D41719"/><stop offset=".751" stop-color="#C7181A"/><stop offset="1" stop-color="#BA181B"/></radialGradient><radialGradient id="g" cx="0" cy="0" r="1" gradientUnits="userSpaceOnUse" gradientTransform="matrix(7.3944 0 0 5.24145 16.26 19.047)"><stop stop-color="#D81719"/><stop offset=".369" stop-color="#D41719"/><stop offset=".751" stop-color="#C7181A"/><stop offset="1" stop-color="#BA181B"/></radialGradient><radialGradient id="h" cx="0" cy="0" r="1" gradientUnits="userSpaceOnUse" gradientTransform="matrix(7.3944 0 0 5.24145 38.483 19.047)"><stop stop-color="#D81719"/><stop offset=".369" stop-color="#D41719"/><stop offset=".751" stop-color="#C7181A"/><stop offset="1" stop-color="#BA181B"/></radialGradient><radialGradient id="i" cx="0" cy="0" r="1" gradientUnits="userSpaceOnUse" gradientTransform="matrix(7.3944 0 0 5.24145 60.705 19.047)"><stop stop-color="#D81719"/><stop offset=".369" stop-color="#D41719"/><stop offset=".751" stop-color="#C7181A"/><stop offset="1" stop-color="#BA181B"/></radialGradient></defs></svg>