<svg width="163" height="51" fill="none" xmlns="http://www.w3.org/2000/svg"><path d="M.5 35a.5.5 0 0 1 .5-.5h131.5v7H1a.5.5 0 0 1-.5-.5v-6Z" stroke="url(#a)"/><path d="M133.463 8.927V1l12.833 2.566a3 3 0 0 1 2.411 2.942v2.419m-15.244 0v32.927h26.049a2 2 0 0 0 2-2v-8.366M133.463 8.927h15.244m0 0h3.171a2 2 0 0 1 1.687.926l7.791 12.243a1 1 0 0 1 .156.537v2.148M148.707 8.927V24.78h12.805m0 0v6.707m0 0h-3.658" stroke="url(#b)" stroke-linecap="round" stroke-linejoin="round"/><circle cx="15.537" cy="42.464" r="8.037" fill="#fff" stroke="url(#c)"/><circle cx="15.537" cy="42.464" r="1.22" fill="url(#d)"/><circle cx="35.781" cy="42.464" r="8.037" fill="#fff" stroke="url(#e)"/><circle cx="35.781" cy="42.464" r="1.22" fill="url(#f)"/><circle cx="55.537" cy="42.464" r="8.037" fill="#fff" stroke="url(#g)"/><circle cx="55.536" cy="42.464" r="1.22" fill="url(#h)"/><circle cx="146.878" cy="42.464" r="8.037" fill="#fff" stroke="url(#i)"/><circle cx="146.878" cy="42.464" r="1.22" fill="url(#j)"/><circle cx="128.537" cy="42.464" r="8.037" fill="#fff" stroke="url(#k)"/><circle cx="128.537" cy="42.464" r="1.22" fill="url(#l)"/><path d="M10 34 21.135 5.895A3 3 0 0 1 23.924 4H26L13.657 34" stroke="url(#m)" stroke-linecap="round" stroke-linejoin="round"/><path d="M2 34.5 14.234 4.856A3 3 0 0 1 17.007 3H19.5L6 34.5" stroke="url(#n)" stroke-linecap="round" stroke-linejoin="round"/><path d="m13 19 12.5 15.5" stroke="url(#o)" stroke-linecap="round" stroke-linejoin="round"/><defs><radialGradient id="a" cx="0" cy="0" r="1" gradientUnits="userSpaceOnUse" gradientTransform="matrix(70.8088 0 0 3.77385 66.331 37.994)"><stop stop-color="#D81719"/><stop offset=".369" stop-color="#D41719"/><stop offset=".751" stop-color="#C7181A"/><stop offset="1" stop-color="#BA181B"/></radialGradient><radialGradient id="b" cx="0" cy="0" r="1" gradientUnits="userSpaceOnUse" gradientTransform="matrix(14.9331 0 0 19.2719 147.452 21.396)"><stop stop-color="#D81719"/><stop offset=".369" stop-color="#D41719"/><stop offset=".751" stop-color="#C7181A"/><stop offset="1" stop-color="#BA181B"/></radialGradient><radialGradient id="c" cx="0" cy="0" r="1" gradientUnits="userSpaceOnUse" gradientTransform="matrix(9.0897 0 0 8.05394 15.515 42.45)"><stop stop-color="#D81719"/><stop offset=".369" stop-color="#D41719"/><stop offset=".751" stop-color="#C7181A"/><stop offset="1" stop-color="#BA181B"/></radialGradient><radialGradient id="d" cx="0" cy="0" r="1" gradientUnits="userSpaceOnUse" gradientTransform="matrix(1.29853 0 0 1.15056 15.534 42.462)"><stop stop-color="#D81719"/><stop offset=".369" stop-color="#D41719"/><stop offset=".751" stop-color="#C7181A"/><stop offset="1" stop-color="#BA181B"/></radialGradient><radialGradient id="e" cx="0" cy="0" r="1" gradientUnits="userSpaceOnUse" gradientTransform="matrix(9.0897 0 0 8.05394 35.76 42.45)"><stop stop-color="#D81719"/><stop offset=".369" stop-color="#D41719"/><stop offset=".751" stop-color="#C7181A"/><stop offset="1" stop-color="#BA181B"/></radialGradient><radialGradient id="f" cx="0" cy="0" r="1" gradientUnits="userSpaceOnUse" gradientTransform="matrix(1.29853 0 0 1.15056 35.778 42.462)"><stop stop-color="#D81719"/><stop offset=".369" stop-color="#D41719"/><stop offset=".751" stop-color="#C7181A"/><stop offset="1" stop-color="#BA181B"/></radialGradient><radialGradient id="g" cx="0" cy="0" r="1" gradientUnits="userSpaceOnUse" gradientTransform="matrix(9.0897 0 0 8.05394 55.515 42.45)"><stop stop-color="#D81719"/><stop offset=".369" stop-color="#D41719"/><stop offset=".751" stop-color="#C7181A"/><stop offset="1" stop-color="#BA181B"/></radialGradient><radialGradient id="h" cx="0" cy="0" r="1" gradientUnits="userSpaceOnUse" gradientTransform="matrix(1.29853 0 0 1.15056 55.533 42.462)"><stop stop-color="#D81719"/><stop offset=".369" stop-color="#D41719"/><stop offset=".751" stop-color="#C7181A"/><stop offset="1" stop-color="#BA181B"/></radialGradient><radialGradient id="i" cx="0" cy="0" r="1" gradientUnits="userSpaceOnUse" gradientTransform="matrix(9.0897 0 0 8.05394 146.856 42.45)"><stop stop-color="#D81719"/><stop offset=".369" stop-color="#D41719"/><stop offset=".751" stop-color="#C7181A"/><stop offset="1" stop-color="#BA181B"/></radialGradient><radialGradient id="j" cx="0" cy="0" r="1" gradientUnits="userSpaceOnUse" gradientTransform="matrix(1.29853 0 0 1.15056 146.875 42.462)"><stop stop-color="#D81719"/><stop offset=".369" stop-color="#D41719"/><stop offset=".751" stop-color="#C7181A"/><stop offset="1" stop-color="#BA181B"/></radialGradient><radialGradient id="k" cx="0" cy="0" r="1" gradientUnits="userSpaceOnUse" gradientTransform="matrix(9.0897 0 0 8.05394 128.515 42.45)"><stop stop-color="#D81719"/><stop offset=".369" stop-color="#D41719"/><stop offset=".751" stop-color="#C7181A"/><stop offset="1" stop-color="#BA181B"/></radialGradient><radialGradient id="l" cx="0" cy="0" r="1" gradientUnits="userSpaceOnUse" gradientTransform="matrix(1.29853 0 0 1.15056 128.534 42.462)"><stop stop-color="#D81719"/><stop offset=".369" stop-color="#D41719"/><stop offset=".751" stop-color="#C7181A"/><stop offset="1" stop-color="#BA181B"/></radialGradient><radialGradient id="m" cx="0" cy="0" r="1" gradientUnits="userSpaceOnUse" gradientTransform="matrix(8.51835 0 0 14.1519 17.98 18.977)"><stop stop-color="#D81719"/><stop offset=".369" stop-color="#D41719"/><stop offset=".751" stop-color="#C7181A"/><stop offset="1" stop-color="#BA181B"/></radialGradient><radialGradient id="n" cx="0" cy="0" r="1" gradientUnits="userSpaceOnUse" gradientTransform="matrix(9.31695 0 0 14.8595 10.728 18.726)"><stop stop-color="#D81719"/><stop offset=".369" stop-color="#D41719"/><stop offset=".751" stop-color="#C7181A"/><stop offset="1" stop-color="#BA181B"/></radialGradient><radialGradient id="o" cx="0" cy="0" r="1" gradientUnits="userSpaceOnUse" gradientTransform="matrix(6.65496 0 0 7.31183 19.234 26.738)"><stop stop-color="#D81719"/><stop offset=".369" stop-color="#D41719"/><stop offset=".751" stop-color="#C7181A"/><stop offset="1" stop-color="#BA181B"/></radialGradient></defs></svg>