<svg width="118" height="50" fill="none" xmlns="http://www.w3.org/2000/svg"><path d="M6.573 41.037v4.78h-4.78" stroke="url(#a)" stroke-linecap="round" stroke-linejoin="round"/><path d="M15.537 8.768v18.525" stroke="url(#b)" stroke-linecap="round" stroke-linejoin="round"/><path d="M43.024 8.768v18.525" stroke="url(#c)" stroke-linecap="round" stroke-linejoin="round"/><path d="M71.707 8.768v18.525" stroke="url(#d)" stroke-linecap="round" stroke-linejoin="round"/><path d="M5.28 3a1.5 1.5 0 0 1 1.5-1.5h73.683a1.5 1.5 0 0 1 1.5 1.5v30.963H5.28V3Z" stroke="url(#e)"/><path d="M.5 34.268a.5.5 0 0 1 .5-.5h88.134v7.366H1a.5.5 0 0 1-.5-.5v-6.366Z" stroke="url(#f)"/><path d="M89.634 8.768V1l12.528 2.505a3 3 0 0 1 2.411 2.942v2.321m-14.939 0v32.269h25.488a2 2 0 0 0 2-2v-8.159M89.634 8.768h14.939m0 0h3.085a2 2 0 0 1 1.688.927l7.62 11.974a1 1 0 0 1 .156.537v2.099M104.573 8.768v15.537h12.549m0 0v6.573m0 0h-3.585" stroke="url(#g)" stroke-linecap="round" stroke-linejoin="round"/><circle cx="17.927" cy="41.634" r="7.866" fill="#fff" stroke="url(#h)"/><circle cx="17.927" cy="41.634" r="1.195" fill="url(#i)"/><circle cx="63.341" cy="41.634" r="7.866" fill="#fff" stroke="url(#j)"/><circle cx="63.342" cy="41.634" r="1.195" fill="url(#k)"/><circle cx="102.78" cy="41.634" r="7.866" fill="#fff" stroke="url(#l)"/><circle cx="102.781" cy="41.634" r="1.195" fill="url(#m)"/><defs><radialGradient id="a" cx="0" cy="0" r="1" gradientUnits="userSpaceOnUse" gradientTransform="matrix(2.54512 0 0 2.2551 4.177 43.423)"><stop stop-color="#D81719"/><stop offset=".369" stop-color="#D41719"/><stop offset=".751" stop-color="#C7181A"/><stop offset="1" stop-color="#BA181B"/></radialGradient><radialGradient id="b" cx="0" cy="0" r="1" gradientUnits="userSpaceOnUse" gradientTransform="matrix(.5324 0 0 8.73853 16.035 18.016)"><stop stop-color="#D81719"/><stop offset=".369" stop-color="#D41719"/><stop offset=".751" stop-color="#C7181A"/><stop offset="1" stop-color="#BA181B"/></radialGradient><radialGradient id="c" cx="0" cy="0" r="1" gradientUnits="userSpaceOnUse" gradientTransform="matrix(.5324 0 0 8.73853 43.523 18.016)"><stop stop-color="#D81719"/><stop offset=".369" stop-color="#D41719"/><stop offset=".751" stop-color="#C7181A"/><stop offset="1" stop-color="#BA181B"/></radialGradient><radialGradient id="d" cx="0" cy="0" r="1" gradientUnits="userSpaceOnUse" gradientTransform="matrix(.5324 0 0 8.73853 72.206 18.016)"><stop stop-color="#D81719"/><stop offset=".369" stop-color="#D41719"/><stop offset=".751" stop-color="#C7181A"/><stop offset="1" stop-color="#BA181B"/></radialGradient><radialGradient id="e" cx="0" cy="0" r="1" gradientUnits="userSpaceOnUse" gradientTransform="matrix(41.3582 0 0 15.7857 43.523 17.706)"><stop stop-color="#D81719"/><stop offset=".369" stop-color="#D41719"/><stop offset=".751" stop-color="#C7181A"/><stop offset="1" stop-color="#BA181B"/></radialGradient><radialGradient id="f" cx="0" cy="0" r="1" gradientUnits="userSpaceOnUse" gradientTransform="matrix(47.7209 0 0 3.94643 44.703 37.445)"><stop stop-color="#D81719"/><stop offset=".369" stop-color="#D41719"/><stop offset=".751" stop-color="#C7181A"/><stop offset="1" stop-color="#BA181B"/></radialGradient><radialGradient id="g" cx="0" cy="0" r="1" gradientUnits="userSpaceOnUse" gradientTransform="matrix(14.6344 0 0 18.8865 103.343 20.988)"><stop stop-color="#D81719"/><stop offset=".369" stop-color="#D41719"/><stop offset=".751" stop-color="#C7181A"/><stop offset="1" stop-color="#BA181B"/></radialGradient><radialGradient id="h" cx="0" cy="0" r="1" gradientUnits="userSpaceOnUse" gradientTransform="matrix(8.90791 0 0 7.89286 17.905 41.621)"><stop stop-color="#D81719"/><stop offset=".369" stop-color="#D41719"/><stop offset=".751" stop-color="#C7181A"/><stop offset="1" stop-color="#BA181B"/></radialGradient><radialGradient id="i" cx="0" cy="0" r="1" gradientUnits="userSpaceOnUse" gradientTransform="matrix(1.27256 0 0 1.12755 17.924 41.632)"><stop stop-color="#D81719"/><stop offset=".369" stop-color="#D41719"/><stop offset=".751" stop-color="#C7181A"/><stop offset="1" stop-color="#BA181B"/></radialGradient><radialGradient id="j" cx="0" cy="0" r="1" gradientUnits="userSpaceOnUse" gradientTransform="matrix(8.90791 0 0 7.89286 63.32 41.621)"><stop stop-color="#D81719"/><stop offset=".369" stop-color="#D41719"/><stop offset=".751" stop-color="#C7181A"/><stop offset="1" stop-color="#BA181B"/></radialGradient><radialGradient id="k" cx="0" cy="0" r="1" gradientUnits="userSpaceOnUse" gradientTransform="matrix(1.27256 0 0 1.12755 63.339 41.632)"><stop stop-color="#D81719"/><stop offset=".369" stop-color="#D41719"/><stop offset=".751" stop-color="#C7181A"/><stop offset="1" stop-color="#BA181B"/></radialGradient><radialGradient id="l" cx="0" cy="0" r="1" gradientUnits="userSpaceOnUse" gradientTransform="matrix(8.90791 0 0 7.89286 102.759 41.621)"><stop stop-color="#D81719"/><stop offset=".369" stop-color="#D41719"/><stop offset=".751" stop-color="#C7181A"/><stop offset="1" stop-color="#BA181B"/></radialGradient><radialGradient id="m" cx="0" cy="0" r="1" gradientUnits="userSpaceOnUse" gradientTransform="matrix(1.27256 0 0 1.12755 102.778 41.632)"><stop stop-color="#D81719"/><stop offset=".369" stop-color="#D41719"/><stop offset=".751" stop-color="#C7181A"/><stop offset="1" stop-color="#BA181B"/></radialGradient></defs></svg>