<svg width="79" height="47" fill="none" xmlns="http://www.w3.org/2000/svg"><path d="M5.392 15.233v-4.905a1 1 0 0 1 .509-.871l14.777-8.328h22.296v14.104m-37.582 0h37.582m-37.582 0-.93 6.63m38.513-6.63h5.067M6.827 35.165 3.67 28.769a1 1 0 0 1-.094-.581l.887-6.325m2.364 13.302h63.427l4.544-8.295a2 2 0 0 0-.446-2.474L63.75 15.233M6.827 35.165H1m62.75-19.932H48.043m15.709 0v-2.417a2 2 0 0 0-.859-1.642l-5.552-3.86a2 2 0 0 0-1.142-.357h-8.156v8.276m6.503 6.25-50.082.38M1 46h76.94" stroke="url(#a)" stroke-linecap="round" stroke-linejoin="round"/><path fill="url(#b)" stroke="url(#c)" stroke-width=".845" d="M37.4 7.801h.845v.845H37.4z"/><path fill="url(#d)" stroke="url(#e)" stroke-width=".845" d="M34.191 7.801h.845v.845h-.845z"/><circle cx="18.73" cy="33.618" r="8.394" fill="#fff" stroke="url(#f)"/><circle cx="18.73" cy="33.618" r="1.034" fill="url(#g)" stroke="url(#h)"/><circle cx="38.57" cy="33.618" r="8.394" fill="#fff" stroke="url(#i)"/><circle cx="38.57" cy="33.618" r="1.034" fill="url(#j)" stroke="url(#k)"/><circle cx="58.41" cy="33.618" r="8.394" fill="#fff" stroke="url(#l)"/><circle cx="58.41" cy="33.618" r="1.034" fill="url(#m)" stroke="url(#n)"/><defs><radialGradient id="a" cx="0" cy="0" r="1" gradientUnits="userSpaceOnUse" gradientTransform="matrix(40.9621 0 0 21.1669 39.372 23.53)"><stop stop-color="#D81719"/><stop offset=".369" stop-color="#D41719"/><stop offset=".751" stop-color="#C7181A"/><stop offset="1" stop-color="#BA181B"/></radialGradient><radialGradient id="b" cx="0" cy="0" r="1" gradientUnits="userSpaceOnUse" gradientTransform="matrix(.89928 0 0 .7968 37.82 8.222)"><stop stop-color="#D81719"/><stop offset=".369" stop-color="#D41719"/><stop offset=".751" stop-color="#C7181A"/><stop offset="1" stop-color="#BA181B"/></radialGradient><radialGradient id="c" cx="0" cy="0" r="1" gradientUnits="userSpaceOnUse" gradientTransform="matrix(.89928 0 0 .7968 37.82 8.222)"><stop stop-color="#D81719"/><stop offset=".369" stop-color="#D41719"/><stop offset=".751" stop-color="#C7181A"/><stop offset="1" stop-color="#BA181B"/></radialGradient><radialGradient id="d" cx="0" cy="0" r="1" gradientUnits="userSpaceOnUse" gradientTransform="matrix(.89928 0 0 .7968 34.611 8.222)"><stop stop-color="#D81719"/><stop offset=".369" stop-color="#D41719"/><stop offset=".751" stop-color="#C7181A"/><stop offset="1" stop-color="#BA181B"/></radialGradient><radialGradient id="e" cx="0" cy="0" r="1" gradientUnits="userSpaceOnUse" gradientTransform="matrix(.89928 0 0 .7968 34.611 8.222)"><stop stop-color="#D81719"/><stop offset=".369" stop-color="#D41719"/><stop offset=".751" stop-color="#C7181A"/><stop offset="1" stop-color="#BA181B"/></radialGradient><radialGradient id="f" cx="0" cy="0" r="1" gradientUnits="userSpaceOnUse" gradientTransform="matrix(9.47061 0 0 8.39144 18.707 33.605)"><stop stop-color="#D81719"/><stop offset=".369" stop-color="#D41719"/><stop offset=".751" stop-color="#C7181A"/><stop offset="1" stop-color="#BA181B"/></radialGradient><radialGradient id="g" cx="0" cy="0" r="1" gradientUnits="userSpaceOnUse" gradientTransform="matrix(1.63286 0 0 1.4468 18.726 33.616)"><stop stop-color="#D81719"/><stop offset=".369" stop-color="#D41719"/><stop offset=".751" stop-color="#C7181A"/><stop offset="1" stop-color="#BA181B"/></radialGradient><radialGradient id="h" cx="0" cy="0" r="1" gradientUnits="userSpaceOnUse" gradientTransform="matrix(1.63286 0 0 1.4468 18.726 33.616)"><stop stop-color="#D81719"/><stop offset=".369" stop-color="#D41719"/><stop offset=".751" stop-color="#C7181A"/><stop offset="1" stop-color="#BA181B"/></radialGradient><radialGradient id="i" cx="0" cy="0" r="1" gradientUnits="userSpaceOnUse" gradientTransform="matrix(9.47061 0 0 8.39144 38.547 33.605)"><stop stop-color="#D81719"/><stop offset=".369" stop-color="#D41719"/><stop offset=".751" stop-color="#C7181A"/><stop offset="1" stop-color="#BA181B"/></radialGradient><radialGradient id="j" cx="0" cy="0" r="1" gradientUnits="userSpaceOnUse" gradientTransform="matrix(1.63286 0 0 1.4468 38.566 33.616)"><stop stop-color="#D81719"/><stop offset=".369" stop-color="#D41719"/><stop offset=".751" stop-color="#C7181A"/><stop offset="1" stop-color="#BA181B"/></radialGradient><radialGradient id="k" cx="0" cy="0" r="1" gradientUnits="userSpaceOnUse" gradientTransform="matrix(1.63286 0 0 1.4468 38.566 33.616)"><stop stop-color="#D81719"/><stop offset=".369" stop-color="#D41719"/><stop offset=".751" stop-color="#C7181A"/><stop offset="1" stop-color="#BA181B"/></radialGradient><radialGradient id="l" cx="0" cy="0" r="1" gradientUnits="userSpaceOnUse" gradientTransform="matrix(9.47061 0 0 8.39144 58.388 33.605)"><stop stop-color="#D81719"/><stop offset=".369" stop-color="#D41719"/><stop offset=".751" stop-color="#C7181A"/><stop offset="1" stop-color="#BA181B"/></radialGradient><radialGradient id="m" cx="0" cy="0" r="1" gradientUnits="userSpaceOnUse" gradientTransform="matrix(1.63286 0 0 1.4468 58.407 33.616)"><stop stop-color="#D81719"/><stop offset=".369" stop-color="#D41719"/><stop offset=".751" stop-color="#C7181A"/><stop offset="1" stop-color="#BA181B"/></radialGradient><radialGradient id="n" cx="0" cy="0" r="1" gradientUnits="userSpaceOnUse" gradientTransform="matrix(1.63286 0 0 1.4468 58.407 33.616)"><stop stop-color="#D81719"/><stop offset=".369" stop-color="#D41719"/><stop offset=".751" stop-color="#C7181A"/><stop offset="1" stop-color="#BA181B"/></radialGradient></defs></svg>